<?xml version="1.0" encoding="UTF-8"?>
<svg version="1.1" xmlns="http://www.w3.org/2000/svg" width="5981" height="800">
<path d="M0 0 C1.54055211 0.00083934 1.54055211 0.00083934 3.11222649 0.00169563 C34.37763974 0.02790213 65.64046504 0.50264288 96.90229744 0.93578428 C103.63216818 1.02872705 110.36209292 1.11711471 117.09203917 1.20439523 C124.53460109 1.3010367 131.97711527 1.40099686 139.41961479 1.50232124 C142.51637942 1.5444223 145.61315513 1.58544086 148.70994759 1.6254406 C163.68248961 1.81997853 178.65254558 2.06067008 193.62017906 2.50011361 C195.60682743 2.55837505 197.59356287 2.61364434 199.58030033 2.66878414 C245.66045843 4.12054959 290.74300448 16.37074557 331.375 38.1015625 C332.45273682 38.67342285 332.45273682 38.67342285 333.55224609 39.25683594 C356.92041101 51.72186609 377.85131073 67.20247219 397.375 85.1015625 C398.46454274 86.08627066 399.55440304 87.07062753 400.64453125 88.0546875 C405.94811832 92.8652886 411.128519 97.63809379 415.7265625 103.14453125 C417.58113903 105.34629154 419.53834249 107.43222817 421.5 109.5390625 C431.94058104 121.13575558 441.03138313 133.9352924 449.375 147.1015625 C449.74012695 147.67487305 450.10525391 148.24818359 450.48144531 148.83886719 C479.52673695 194.81639161 498.32023209 250.2708373 498.578125 304.98046875 C498.58513931 305.98250839 498.59215363 306.98454803 498.59938049 308.01695251 C498.61678428 311.23270212 498.62323275 314.44826753 498.625 317.6640625 C498.62601212 319.31269287 498.62601212 319.31269287 498.62704468 320.99462891 C498.61119409 337.23274227 498.20336643 353.07231314 495.375 369.1015625 C495.20339355 370.1136377 495.03178711 371.12571289 494.85498047 372.16845703 C485.44206506 426.53456275 463.05231728 477.1390001 428.375 520.1015625 C427.5809375 521.10058594 426.786875 522.09960938 425.96875 523.12890625 C419.10609507 531.54889589 411.46608084 539.22183218 403.8125 546.9140625 C403.28187958 547.44994995 402.75125916 547.9858374 402.20455933 548.53796387 C395.26792644 555.52772795 388.14744073 562.03003504 380.375 568.1015625 C379.68688232 568.64369385 378.99876465 569.1858252 378.28979492 569.74438477 C315.01548246 619.06845511 242.95403607 635.70573286 164.13171911 635.40574431 C158.28754083 635.38676096 152.44335597 635.38521026 146.59915161 635.38166809 C135.57498321 635.37241036 124.55090597 635.34788316 113.52677739 635.31761962 C98.59973317 635.277547 83.67266335 635.26156996 68.74557877 635.24411297 C45.28865113 635.21605621 21.83191571 635.15624535 -1.625 635.1015625 C-1.625 681.6315625 -1.625 728.1615625 -1.625 776.1015625 C-32.13676471 776.1015625 -32.13676471 776.1015625 -41.5 775.0390625 C-42.67159668 774.91039795 -43.84319336 774.7817334 -45.05029297 774.64916992 C-70.45147757 771.62506173 -95.33490198 766.09793435 -119.625 758.1015625 C-120.52025391 757.81313477 -121.41550781 757.52470703 -122.33789062 757.22753906 C-170.44579002 741.6461068 -214.75461561 715.469573 -252.625 682.1015625 C-253.34373291 681.47040527 -254.06246582 680.83924805 -254.80297852 680.18896484 C-261.11813698 674.58011114 -267.16903791 668.74377177 -273.13891602 662.77294922 C-274.68423066 661.2298272 -276.23740446 659.69491944 -277.79101562 658.16015625 C-284.18777571 651.79889492 -290.0099913 645.17485395 -295.625 638.1015625 C-296.48824737 637.07389411 -297.35663688 636.05047598 -298.234375 635.03515625 C-318.79107907 611.06483892 -335.05519718 583.53259381 -348.625 555.1015625 C-349.15625488 553.99337158 -349.15625488 553.99337158 -349.69824219 552.86279297 C-391.37190527 465.19361736 -397.14679629 360.55380662 -361.90214539 252.32133484 C-358.31714018 242.35519428 -354.18924486 232.65702358 -349.625 223.1015625 C-349.2748584 222.36647461 -348.9247168 221.63138672 -348.56396484 220.87402344 C-346.64609818 216.88420039 -344.65895914 212.93571768 -342.61376953 209.00976562 C-341.60004729 207.05340686 -340.60991414 205.086234 -339.62109375 203.1171875 C-320.0002679 164.53139791 -291.00122166 126.45019804 -258.05859375 98.1953125 C-256.13944298 96.54416513 -254.24017341 94.87659443 -252.34765625 93.1953125 C-231.63893187 74.88022642 -208.80919985 59.46158151 -184.625 46.1015625 C-183.83254883 45.65748047 -183.04009766 45.21339844 -182.22363281 44.75585938 C-140.4414085 21.45971345 -93.92361845 8.03212549 -46.625 2.1015625 C-45.58972168 1.97023926 -44.55444336 1.83891602 -43.48779297 1.70361328 C-29.0272803 -0.01506409 -14.53856357 -0.0202491 0 0 Z M-154.625 195.1015625 C-155.77062534 196.04322186 -156.9164624 196.98462368 -158.0625 197.92578125 C-170.7224616 208.4386077 -182.69774215 219.94414068 -192.625 233.1015625 C-193.10114746 233.72836914 -193.57729492 234.35517578 -194.06787109 235.00097656 C-226.43489834 277.85479975 -245.27929968 328.15653232 -246.625 382.1015625 C-246.66496094 383.10445312 -246.70492187 384.10734375 -246.74609375 385.140625 C-247.69488058 427.44535558 -236.41351219 468.95621789 -216.625 506.1015625 C-216.29064941 506.74222656 -215.95629883 507.38289063 -215.61181641 508.04296875 C-187.20671931 562.24027113 -134.82704114 604.74347346 -76.88989258 623.64038086 C-52.56491628 631.21956413 -28.11820477 635.1015625 -2.625 635.1015625 C-2.625 588.5715625 -2.625 542.0415625 -2.625 494.1015625 C18.59232422 494.13636719 18.59232422 494.13636719 40.23828125 494.171875 C49.22070386 494.18209886 58.20312223 494.19181015 67.18554688 494.19921875 C81.4302719 494.21106235 95.67497317 494.22494685 109.91967773 494.25244141 C120.29637219 494.27246043 130.67304729 494.28529902 141.04976052 494.28973949 C146.53724484 494.29233253 152.0246738 494.29836876 157.51214027 494.31302261 C162.69213611 494.32674146 167.87205452 494.33075668 173.0520668 494.32777786 C174.93884517 494.3283217 176.82562651 494.33221301 178.71238899 494.33997345 C194.52244438 494.40173364 210.47600716 493.81910115 225.875 489.9140625 C226.73826904 489.70048096 227.60153809 489.48689941 228.4909668 489.2668457 C254.38404921 482.60525104 278.92900949 470.42612121 298.83691406 452.48388672 C300.36401299 451.11143686 301.91023803 449.7636455 303.4609375 448.41796875 C334.75322624 420.93961539 356.32669689 378.31965686 359.24609375 336.66210938 C361.84622875 285.0139733 348.09342712 238.52985757 313.45800781 199.64282227 C284.03195204 167.14340133 243.03316854 147.52916146 199.375 144.1015625 C195.44485868 143.92752399 191.51592789 143.86081056 187.58251953 143.80444336 C186.43957963 143.78480719 185.29663973 143.76517101 184.11906528 143.7449398 C180.3320376 143.68115753 176.54494487 143.62360923 172.7578125 143.56640625 C170.74745125 143.53398808 168.73709005 143.50156597 166.72673434 143.46880621 C158.06639918 143.32791693 149.40591371 143.1981637 140.74535513 143.07184696 C138.50283767 143.03910393 136.26032396 143.00611363 134.01781082 142.97307587 C96.20578177 142.41720301 58.39066016 141.86979258 20.57440186 141.74807739 C16.78283147 141.73578312 12.99148752 141.71469606 9.20001221 141.68527222 C-50.61975215 141.24510068 -107.91476146 155.83646665 -154.625 195.1015625 Z " fill="#0B33FF" transform="translate(398.625,6.8984375)"/>
<path d="M0 0 C11.02429379 9.51187941 21.15128842 19.60553131 30.08276367 31.13525391 C31.20811523 32.56998047 31.20811523 32.56998047 32.35620117 34.03369141 C37.79241656 41.10262678 42.64662401 48.40225591 47.08276367 56.13525391 C47.66477539 57.13758057 47.66477539 57.13758057 48.25854492 58.16015625 C77.14071011 108.46326062 82.50213652 172.5874786 67.77026367 228.26025391 C53.26939725 280.04762446 19.31900742 327.04899765 -27.81567383 353.91259766 C-69.5475564 376.88683613 -120.27870708 386.78041456 -166.88061523 373.73583984 C-185.24326929 368.32081599 -202.33852938 359.57121134 -216.91723633 347.13525391 C-218.20114258 346.04277344 -218.20114258 346.04277344 -219.51098633 344.92822266 C-222.03211106 342.71426027 -224.48142803 340.44266301 -226.91723633 338.13525391 C-227.86211914 337.25482422 -228.80700195 336.37439453 -229.78051758 335.46728516 C-238.07944912 327.49126924 -243.79798053 319.62759497 -250.91723633 310.13525391 C-251.24723633 367.88525391 -251.57723633 425.63525391 -251.91723633 485.13525391 C-282.60723633 485.13525391 -313.29723633 485.13525391 -344.91723633 485.13525391 C-344.91723633 314.19525391 -344.91723633 143.25525391 -344.91723633 -32.86474609 C-314.22723633 -32.86474609 -283.53723633 -32.86474609 -251.91723633 -32.86474609 C-251.58723633 -12.07474609 -251.25723633 8.71525391 -250.91723633 30.13525391 C-247.94723633 25.51525391 -244.97723633 20.89525391 -241.91723633 16.13525391 C-217.33866118 -16.37189387 -185.89616507 -37.90446473 -145.47583008 -44.41943359 C-92.96847378 -50.61769855 -40.19197112 -33.90198095 0 0 Z M-206.91723633 69.13525391 C-207.74481445 69.84423828 -208.57239258 70.55322266 -209.42504883 71.28369141 C-235.03161314 93.6013392 -248.92201063 123.5178713 -251.91723633 157.13525391 C-254.30502734 192.75832737 -243.33157302 225.35656792 -220.20825195 252.39306641 C-200.36068849 274.95084888 -174.02386029 287.93291619 -143.91723633 289.88525391 C-116.30788982 291.25002635 -88.78929212 283.84066031 -67.91723633 265.13525391 C-66.67586914 264.07177734 -66.67586914 264.07177734 -65.40942383 262.98681641 C-40.41484729 241.20255245 -25.39602403 211.9370488 -22.22973633 178.94775391 C-22.10630251 177.0113859 -22.00163195 175.07371575 -21.91723633 173.13525391 C-21.87598633 172.21873047 -21.83473633 171.30220703 -21.79223633 170.35791016 C-21.0336539 135.79499814 -33.64790251 104.35589454 -56.91723633 79.13525391 C-57.6674707 78.30251953 -58.41770508 77.46978516 -59.19067383 76.61181641 C-78.4041185 56.25556462 -105.32056578 45.47863513 -132.92114258 43.97119141 C-159.82402099 43.27241534 -186.65465159 50.97605166 -206.91723633 69.13525391 Z " fill="#000000" transform="translate(2858.917236328125,295.86474609375)"/>
<path d="M0 0 C296.77114115 0 296.77114115 0 349 45 C349.54591797 45.47002441 350.09183594 45.94004883 350.65429688 46.42431641 C356.58392477 51.57441882 362.05574849 56.89968133 367 63 C367.40718262 63.49483887 367.81436523 63.98967773 368.23388672 64.49951172 C384.72679858 84.6034032 396.57273931 107.22227167 402.75 132.5 C402.94875732 133.30526123 403.14751465 134.11052246 403.35229492 134.94018555 C406.5046294 148.58859129 407.38417052 162.22842144 407.3125 176.1875 C407.31034485 176.94968842 407.3081897 177.71187683 407.30596924 178.49716187 C407.18392045 205.51615331 402.02338209 230.68129214 390 255 C389.68836914 255.6501709 389.37673828 256.3003418 389.05566406 256.97021484 C382.02986164 271.56083627 372.20914715 284.35571515 361 296 C360.47599609 296.55510254 359.95199219 297.11020508 359.41210938 297.68212891 C334.82328134 323.64390216 303.5148137 341.60862561 268.5 349.25 C267.81421875 349.40122314 267.1284375 349.55244629 266.421875 349.70825195 C247.8165569 353.46623762 229.08543319 353.27374164 210.1999054 353.20256042 C206.63237173 353.1910117 203.06486707 353.19062569 199.49731445 353.18920898 C189.12319279 353.17879179 178.74909464 353.15086942 168.375 353.125 C145.15125 353.08375 121.9275 353.0425 98 353 C98 407.12 98 461.24 98 517 C65.66 517 33.32 517 0 517 C0 346.39 0 175.78 0 0 Z M98 87 C98 145.74 98 204.48 98 265 C132.1859375 265.12375 132.1859375 265.12375 167.0625 265.25 C174.23492432 265.28641602 181.40734863 265.32283203 188.79711914 265.36035156 C195.27672195 265.37373667 195.27672195 265.37373667 201.7563324 265.3817749 C204.62246821 265.38547266 207.48830186 265.40034531 210.35435486 265.42230225 C214.02863852 265.45007109 217.7024931 265.45790453 221.37687194 265.4522891 C223.33679339 265.45400627 225.29666919 265.47528638 227.25646305 265.497715 C248.03893584 265.40198403 264.86702395 256.84409567 279.625 242.4375 C298.76770982 222.36099945 305.5115728 197.94243051 305.21484375 170.88671875 C304.64292136 148.75936112 295.75016836 128.37794585 281 112 C279.96939453 110.82824219 279.96939453 110.82824219 278.91796875 109.6328125 C266.0416625 95.82482546 248.5734204 87.86583185 229.75011444 86.81931686 C226.24686955 86.7561564 222.74887194 86.75230844 219.24511719 86.77294922 C217.89199459 86.77356359 216.53887136 86.77329201 215.18574905 86.7722187 C211.60000332 86.7717718 208.01439423 86.7832651 204.42868042 86.79743958 C201.04961776 86.80892805 197.67058639 86.80937112 194.29150391 86.81079102 C184.44431822 86.82123731 174.59715732 86.84915984 164.75 86.875 C142.7225 86.91625 120.695 86.9575 98 87 Z " fill="#000000" transform="translate(1117,148)"/>
<path d="M0 0 C0.73171417 -0.00067474 1.46342834 -0.00134949 2.21731567 -0.00204468 C13.73676068 0.01479225 24.81882083 0.60197542 36.0625 3.25 C36.79887695 3.41628906 37.53525391 3.58257812 38.29394531 3.75390625 C78.13565899 12.98364687 106.11430597 38.06475746 131.0625 69.25 C131.3925 50.44 131.7225 31.63 132.0625 12.25 C163.7425 12.25 195.4225 12.25 228.0625 12.25 C228.0625 145.24 228.0625 278.23 228.0625 415.25 C196.3825 415.25 164.7025 415.25 132.0625 415.25 C131.7325 394.13 131.4025 373.01 131.0625 351.25 C126.1125 358.675 126.1125 358.675 121.0625 366.25 C95.25845111 398.28261241 62.55830769 420.90703824 21.0625 426.25 C-32.74059339 431.5135444 -85.54039857 416.03903558 -127.515625 382.11328125 C-133.21568599 377.40503087 -138.6005655 372.36190564 -143.9375 367.25 C-144.68773438 366.54101562 -145.43796875 365.83203125 -146.2109375 365.1015625 C-160.86647383 350.90944234 -172.59011158 333.30012937 -181.9375 315.25 C-182.2773291 314.60160156 -182.6171582 313.95320313 -182.96728516 313.28515625 C-209.99137284 261.07218913 -211.59623829 196.35913732 -194.30859375 140.90625 C-184.48341075 110.83663358 -167.72815894 84.98299719 -145.9375 62.25 C-145.43492676 61.72019531 -144.93235352 61.19039063 -144.41455078 60.64453125 C-112.81043998 27.47449536 -71.23058411 7.21138053 -25.9375 1.25 C-25.21506104 1.15428711 -24.49262207 1.05857422 -23.74829102 0.95996094 C-15.85477923 0.04167061 -7.93673865 0.00659969 0 0 Z M-75.14257812 131.25244141 C-98.6168328 157.37680916 -106.46710736 191.08515781 -104.83349609 225.43701172 C-103.62837283 243.35609904 -97.89922697 260.76804219 -88.9375 276.25 C-88.58816406 276.85924316 -88.23882812 277.46848633 -87.87890625 278.09619141 C-82.58142439 287.18486564 -76.27348137 294.74705461 -68.9375 302.25 C-67.71740234 303.56291016 -67.71740234 303.56291016 -66.47265625 304.90234375 C-50.59337354 321.60518731 -27.74334068 332.91445187 -4.9375 336.25 C-4.20015625 336.36085938 -3.4628125 336.47171875 -2.703125 336.5859375 C26.98909498 340.27255542 58.08013687 333.50193798 82.0625 315.25 C86.27539994 311.80273673 90.17157028 308.05212105 94.0625 304.25 C94.85269531 303.52167969 95.64289063 302.79335938 96.45703125 302.04296875 C103.03048445 295.83790522 108.0866497 288.74902728 113.0625 281.25 C113.70316406 280.29351563 114.34382813 279.33703125 115.00390625 278.3515625 C131.79771083 251.52655921 135.91246288 215.72373572 129.2109375 185.12109375 C120.92819227 152.2931401 101.32083773 123.19032106 72.13476562 105.44921875 C61.69006645 99.40487823 50.8569439 94.91461872 39.0625 92.25 C37.63744141 91.91355469 37.63744141 91.91355469 36.18359375 91.5703125 C-7.04769877 83.16582687 -45.94648924 99.99086889 -75.14257812 131.25244141 Z " fill="#000000" transform="translate(4267.9375,250.75)"/>
<path d="M0 0 C1.23387451 -0.00101212 1.23387451 -0.00101212 2.49267578 -0.00204468 C15.62241118 0.01502806 28.34647716 0.6397551 41.25 3.25 C42.11931152 3.42160645 42.98862305 3.59321289 43.88427734 3.77001953 C80.78025309 11.26440996 112.69179108 28.83918398 140.25 54.25 C141.1059375 55.0028125 141.961875 55.755625 142.84375 56.53125 C148.08833934 61.1439611 152.78919866 65.88369411 157.25 71.25 C157.99765625 72.10980469 158.7453125 72.96960938 159.515625 73.85546875 C170.43345529 86.57577102 179.47421567 100.41362089 187.25 115.25 C187.84296875 116.36890625 188.4359375 117.4878125 189.046875 118.640625 C198.15024074 136.9308736 204.17430715 157.08468714 207.25 177.25 C207.42136475 178.28737305 207.42136475 178.28737305 207.59619141 179.34570312 C211.46895841 203.37407087 212.05406378 233.83780865 204.25 257.25 C101.29 257.25 -1.67 257.25 -107.75 257.25 C-97.41674877 288.2497537 -79.47345548 313.08048673 -49.98046875 328.2265625 C-34.28688688 335.9733364 -18.48505091 339.65278426 -1 339.5625 C0.13526123 339.55758545 1.27052246 339.5526709 2.44018555 339.54760742 C30.40911656 339.1595094 54.94945566 327.23700511 74.90509415 307.7720089 C76.50392622 306.06780056 76.50392622 306.06780056 78.1343689 302.93208313 C80.80327547 298.2847949 83.22901131 294.19616613 88.56272125 292.52566147 C95.65410947 291.38719986 102.82522079 291.76027917 109.9765625 291.98046875 C112.2939232 292.00474133 114.611351 292.02323409 116.92880249 292.03620911 C123.00346845 292.08564629 129.07403811 292.21315448 135.14709473 292.35736084 C141.35400986 292.49079153 147.56159271 292.54981416 153.76953125 292.61523438 C165.93147904 292.75430076 178.09039782 292.97591629 190.25 293.25 C189.79178809 294.81915785 189.33017559 296.38732287 188.8671875 297.95507812 C188.61050293 298.82845825 188.35381836 299.70183838 188.08935547 300.60168457 C180.84527179 323.45805388 166.6629562 344.45308703 150.4609375 361.8515625 C148.76394341 363.69247128 147.17270352 365.53680561 145.625 367.5 C142.47093698 371.15207298 138.93595253 374.14765662 135.25 377.25 C134.3734375 378.01441406 133.496875 378.77882813 132.59375 379.56640625 C90.80860021 415.45445829 36.64241073 430.1376948 -17.75 426.625 C-54.35268654 423.80165922 -91.06742076 412.31437613 -120.75 390.25 C-121.3054248 389.84571777 -121.86084961 389.44143555 -122.43310547 389.02490234 C-130.71212468 382.98267918 -138.35195629 376.34062726 -145.75 369.25 C-146.33539551 368.69715332 -146.92079102 368.14430664 -147.52392578 367.57470703 C-187.53357972 329.6503154 -208.67258005 277.8956263 -210.87597656 223.11816406 C-211.52399063 197.12377697 -208.7482547 172.30199184 -201.75 147.25 C-201.54648926 146.51894043 -201.34297852 145.78788086 -201.13330078 145.03466797 C-193.15088715 117.20966543 -177.70797609 91.64264649 -157.97265625 70.625 C-156.03109523 68.55036186 -154.19755747 66.42828555 -152.375 64.25 C-119.91451746 27.2059771 -69.16488073 4.87826992 -20.7175293 0.4309082 C-13.81941896 0.01038169 -6.90872456 0.00509824 0 0 Z M-81.20019531 120.84765625 C-94.28350055 135.9376034 -103.45197526 153.46185155 -106.75 173.25 C-36.46 173.25 33.83 173.25 106.25 173.25 C105.44338667 166.79709336 104.4597316 162.15077912 102.25 156.25 C101.94239746 155.42693359 101.63479492 154.60386719 101.31787109 153.75585938 C90.64499356 126.17939411 70.23851194 104.34962742 43.35546875 92.15039062 C0.25443387 73.71850094 -50.07550587 86.5580994 -81.20019531 120.84765625 Z " fill="#000000" transform="translate(4984.75,250.75)"/>
<path d="M0 0 C3.81912438 3.41878355 7.54775508 6.92516101 11.25292969 10.46679688 C11.9296875 11.10230469 12.60644531 11.7378125 13.30371094 12.39257812 C18.43891922 17.33890518 22.79889482 22.91280905 27.25292969 28.46679688 C27.90132812 29.23636719 28.54972656 30.0059375 29.21777344 30.79882812 C59.3098634 66.92164369 73.40608439 113.47030852 73.56542969 159.96679688 C73.5690451 160.77662018 73.57266052 161.58644348 73.5763855 162.42080688 C73.63762163 196.697413 73.63762163 196.697413 68.25292969 207.46679688 C-34.70707031 207.46679688 -137.66707031 207.46679688 -243.74707031 207.46679688 C-237.91644744 223.29277325 -232.57226255 236.81427518 -221.74707031 249.46679688 C-221.08191406 250.26472656 -220.41675781 251.06265625 -219.73144531 251.88476562 C-201.67648262 272.82982126 -176.26320352 286.45366659 -148.74707031 289.46679688 C-115.07541237 291.05817354 -88.68441515 283.13515976 -63.57519531 260.50976562 C-59.41556068 256.56165591 -59.41556068 256.56165591 -56.45202637 251.69548035 C-54.60178661 248.02730678 -53.02672214 245.98429294 -49.74707031 243.46679688 C-42.21466916 241.36737515 -33.94633497 242.19212418 -26.21582031 242.39257812 C-23.89558607 242.41310885 -21.57530396 242.42876015 -19.25500488 242.43974304 C-13.1644189 242.48163168 -7.07674456 242.5895822 -0.98730469 242.71148682 C5.23299775 242.82426025 11.45377339 242.87430498 17.67480469 242.9296875 C29.86878843 243.04746183 42.06061643 243.23505961 54.25292969 243.46679688 C46.94569089 283.09827097 12.84072169 319.80773571 -18.95410156 341.92382812 C-66.72772395 374.39388762 -124.49564182 383.52842132 -180.78613281 373.05371094 C-220.99224483 365.08409573 -255.57145404 344.86831171 -284.74707031 316.46679688 C-285.61203125 315.64179687 -286.47699219 314.81679688 -287.36816406 313.96679688 C-302.25738721 299.51625101 -314.25015546 281.84864288 -323.74707031 263.46679688 C-324.0922168 262.80244629 -324.43736328 262.1380957 -324.79296875 261.45361328 C-350.80368378 210.68997835 -353.09525328 147.74058922 -336.50878906 93.70507812 C-326.86668279 64.04433461 -310.24801484 37.89992185 -288.74707031 15.46679688 C-288.19422363 14.88140137 -287.64137695 14.29600586 -287.07177734 13.69287109 C-277.73020613 3.83765614 -267.82992356 -4.68840422 -256.74707031 -12.53320312 C-256.1719873 -12.94231934 -255.5969043 -13.35143555 -255.00439453 -13.77294922 C-180.95292332 -65.68190352 -77.07301829 -61.47808075 0 0 Z M-204.74707031 59.46679688 C-205.49730469 60.07523438 -206.24753906 60.68367188 -207.02050781 61.31054688 C-225.92097491 77.24197508 -236.7908949 98.87117889 -242.74707031 122.46679688 C-242.74707031 122.79679687 -242.74707031 123.12679687 -242.74707031 123.46679688 C-172.12707031 123.46679688 -101.50707031 123.46679688 -28.74707031 123.46679688 C-31.80820239 111.45275007 -31.80820239 111.45275007 -35.93457031 99.90429688 C-36.23081299 99.19942139 -36.52705566 98.4945459 -36.83227539 97.76831055 C-48.24906061 71.59661942 -70.04704616 51.05868567 -96.46972656 40.56054688 C-134.14797179 27.98616229 -173.88532829 34.34042284 -204.74707031 59.46679688 Z " fill="#000000" transform="translate(3507.7470703125,300.533203125)"/>
<path d="M0 0 C1.13612228 0.00273422 1.13612228 0.00273422 2.29519653 0.00552368 C14.98771105 0.05664476 27.34200699 0.78758551 39.8125 3.3125 C41.05628418 3.56193359 41.05628418 3.56193359 42.32519531 3.81640625 C79.15630123 11.50438352 110.9008426 30.41958042 137.8125 56.3125 C138.30524414 56.78333008 138.79798828 57.25416016 139.30566406 57.73925781 C179.18876449 96.0130872 200.4717595 148.52802586 202.8125 203.3125 C202.86664062 204.56933594 202.92078125 205.82617188 202.9765625 207.12109375 C203.44319883 223.96999845 200.81728875 240.78616187 197.8125 257.3125 C97.8225 257.3125 -2.1675 257.3125 -105.1875 257.3125 C-99.38238889 273.76031482 -94.14063581 287.04583055 -83.1875 300.3125 C-82.04667969 301.70082031 -82.04667969 301.70082031 -80.8828125 303.1171875 C-63.9360368 322.73099675 -39.2497766 336.99105706 -13.1875 339.3125 C13.25220874 340.98337729 36.35598409 336.38293279 57.8125 320.3125 C59.30716797 319.20455078 59.30716797 319.20455078 60.83203125 318.07421875 C69.76666191 311.0664404 76.52935764 302.73721355 82.8125 293.3125 C84.63595009 292.94335651 84.63595009 292.94335651 86.88735962 292.95173645 C88.16622795 292.94555046 88.16622795 292.94555046 89.47093201 292.9392395 C90.40816605 292.95002533 91.34540009 292.96081116 92.31103516 292.97192383 C93.29643784 292.97148575 94.28184052 292.97104767 95.29710388 292.97059631 C98.56545592 292.97269211 101.8332997 292.99606065 105.1015625 293.01953125 C107.36314616 293.02512438 109.62473344 293.02939581 111.88632202 293.03239441 C117.84751366 293.04386539 123.80848706 293.07335204 129.76959229 293.10650635 C135.84896899 293.13715867 141.92838085 293.15088939 148.0078125 293.16601562 C159.94280438 293.19821951 171.87763406 293.24944309 183.8125 293.3125 C183.36010516 295.03742712 182.90273592 296.76104995 182.44335938 298.48413086 C182.18921265 299.44411484 181.93506592 300.40409882 181.67321777 301.39317322 C180.29329155 306.07351759 178.35428876 310.45099038 176.3125 314.875 C175.87744141 315.82173584 175.44238281 316.76847168 174.99414062 317.74389648 C165.8583193 337.17706563 153.59399562 353.82712364 138.8125 369.3125 C138.01199219 370.16585938 137.21148438 371.01921875 136.38671875 371.8984375 C101.61745331 407.97652963 51.98090231 425.9612371 2.59765625 427.27734375 C-31.36409303 427.74472984 -65.37963062 421.00624503 -95.1875 404.3125 C-96.34636719 403.70019531 -97.50523438 403.08789062 -98.69921875 402.45703125 C-122.24609509 389.6684142 -143.86587118 370.50247672 -160.1875 349.3125 C-160.81108398 348.51948486 -160.81108398 348.51948486 -161.44726562 347.71044922 C-183.21165105 319.92458383 -195.84728982 287.82995294 -202.1875 253.3125 C-202.31495605 252.61946777 -202.44241211 251.92643555 -202.57373047 251.21240234 C-210.34798965 206.54217911 -204.10104976 157.05113525 -184.1875 116.3125 C-183.81109375 115.53519531 -183.4346875 114.75789063 -183.046875 113.95703125 C-168.42319042 84.07596909 -146.05463516 57.92550867 -119.1875 38.3125 C-118.341875 37.6834375 -117.49625 37.054375 -116.625 36.40625 C-82.52519849 11.72876206 -41.90192817 -0.21175775 0 0 Z M-67.1875 109.3125 C-67.87199219 109.86421875 -68.55648438 110.4159375 -69.26171875 110.984375 C-88.69481164 127.01954006 -98.24413048 149.5390219 -104.1875 173.3125 C-35.8775 173.3125 32.4325 173.3125 102.8125 173.3125 C101.07709213 163.61103288 101.07709213 163.61103288 98.125 154.4375 C97.73417236 153.42296753 97.73417236 153.42296753 97.33544922 152.38793945 C86.93539167 126.13503781 67.16474302 103.63882425 41.421875 91.74609375 C4.56061417 76.83241938 -37.17384719 83.45134907 -67.1875 109.3125 Z " fill="#000000" transform="translate(1766.1875,250.6875)"/>
<path d="M0 0 C1.1921965 -0.00101212 1.1921965 -0.00101212 2.40847778 -0.00204468 C57.11022004 0.07141365 108.16732136 20.30424516 148.078125 57.765625 C150.29796168 59.82968367 152.55511216 61.80129421 154.875 63.75 C190.2371944 94.68284356 212.73942036 144.37972172 216.5390625 190.68066406 C217.80714517 212.13826672 217.87586607 234.10087552 213.75 255.25 C213.58371094 256.11753906 213.41742187 256.98507812 213.24609375 257.87890625 C205.99721791 294.33806695 188.89074398 326.54815326 163.890625 353.88671875 C162.02147093 355.95029213 160.22676638 358.05514613 158.4375 360.1875 C123.31871792 400.18611284 69.56395386 422.84931714 17.30078125 426.78515625 C-37.1633266 430.06981953 -90.33593456 415.40727641 -133.25 381.25 C-134.20390625 380.50105469 -135.1578125 379.75210937 -136.140625 378.98046875 C-175.30938294 347.09308248 -201.93782516 305.7618208 -212.25 256.25 C-212.42934082 255.4146875 -212.60868164 254.579375 -212.79345703 253.71875 C-223.2459518 202.56691858 -212.77958889 144.66288435 -184.484375 100.890625 C-151.88562655 51.94978161 -101.54969705 15.7154776 -43.70654297 3.72265625 C-29.17533529 0.9311879 -14.77989718 0.01132824 0 0 Z M-86.375 130.5 C-110.74963878 158.07771631 -117.81871653 191.20153446 -116.25 227.25 C-113.84240809 261.35137881 -95.41810179 290.56704514 -70.3203125 312.8046875 C-46.26528813 331.9630148 -15.99814153 340.10310918 14.484375 336.78515625 C46.64175827 332.64347522 73.4778799 316.25582231 93.23486328 290.68579102 C114.2121787 262.41762431 121.61926163 227.70738226 116.97631836 192.93920898 C112.73046709 166.48156596 100.12735632 143.48059072 81.75 124.25 C80.76 123.14785156 80.76 123.14785156 79.75 122.0234375 C62.28385221 103.30025634 35.67197693 91.33209802 10.14868164 90.12719727 C-29.14319884 89.0128943 -59.36878122 102.05683061 -86.375 130.5 Z " fill="#000000" transform="translate(2234.25,250.75)"/>
<path d="M0 0 C1.31121826 0.00491455 2.62243652 0.0098291 3.97338867 0.01489258 C42.80747595 0.47944365 75.34972544 14.88474906 103.125 41.6875 C124.86089989 63.98960278 138.34935867 92.47027654 145.125 122.625 C145.32762451 123.51276123 145.53024902 124.40052246 145.73901367 125.31518555 C149.50820202 142.93460793 149.71999146 160.4659816 149.66455078 178.40673828 C149.66398553 180.99064123 149.66430546 183.5745445 149.66543579 186.15844727 C149.66647616 191.6846424 149.66028933 197.2107897 149.64896011 202.73697281 C149.63259151 210.726549 149.6274856 218.71610245 149.62498413 226.70569359 C149.62062468 239.67343768 149.60736349 252.64115638 149.58837891 265.60888672 C149.56997451 278.19352086 149.55584043 290.77814806 149.54736328 303.36279297 C149.54683783 304.14065679 149.54631239 304.91852061 149.54577102 305.71995606 C149.54316063 309.62291126 149.54063329 313.52586652 149.53814721 317.4288218 C149.5174693 349.72340372 149.48062931 382.01793832 149.4375 414.3125 C118.0875 414.3125 86.7375 414.3125 54.4375 414.3125 C54.4281543 406.89410645 54.41880859 399.47571289 54.40917969 391.83251953 C54.37640322 368.03845387 54.32407002 344.24447191 54.25957905 320.4504729 C54.24956278 316.74839509 54.23971845 313.04631684 54.22998047 309.34423828 C54.2280391 308.60728741 54.22609772 307.87033653 54.22409752 307.11105381 C54.19316021 295.21187671 54.17612005 283.31271885 54.16430578 271.41350915 C54.15185119 259.18437351 54.12425334 246.95533809 54.08288693 234.72626579 C54.05787411 227.19324478 54.04437372 219.66039019 54.04607043 212.12732707 C54.04610398 206.33011795 54.02496757 200.53312756 53.99633217 194.73599625 C53.98787688 192.37311236 53.98605317 190.01019299 53.99169731 187.64730072 C54.02595175 171.0897545 53.42768271 154.43245837 45.6875 139.375 C45.34533447 138.68027588 45.00316895 137.98555176 44.65063477 137.26977539 C41.5379545 131.13615252 37.78820718 125.63989654 33.4375 120.3125 C32.90898437 119.6215625 32.38046875 118.930625 31.8359375 118.21875 C20.20068625 103.77498983 1.76187224 93.57243169 -16.5625 91.3125 C-39.063696 89.51539294 -59.90953473 93.21203156 -78.0625 107.3125 C-79.58179178 108.6238086 -81.0831925 109.9562452 -82.5625 111.3125 C-83.24441406 111.91449219 -83.92632812 112.51648438 -84.62890625 113.13671875 C-100.52756129 127.97753764 -109.84070103 149.33219213 -110.93498993 170.92033768 C-111.13939106 177.35088994 -111.12370133 183.78030609 -111.10839844 190.21337891 C-111.11715096 192.66921131 -111.12764253 195.12503804 -111.13972473 197.58085632 C-111.1616955 202.83040833 -111.1717937 208.07983386 -111.17061615 213.32942581 C-111.16893495 220.91907788 -111.18940206 228.50854872 -111.21497145 236.09815209 C-111.25588581 248.41698839 -111.27932274 260.7357917 -111.29150391 273.0546875 C-111.30336241 285.00882123 -111.32361668 296.96289304 -111.35498047 308.91699219 C-111.35691657 309.65602506 -111.35885267 310.39505794 -111.36084744 311.15648575 C-111.3706132 314.86464844 -111.38054209 318.57281068 -111.39055204 322.28097272 C-111.47315273 352.95813719 -111.52400992 383.63523939 -111.5625 414.3125 C-142.9125 414.3125 -174.2625 414.3125 -206.5625 414.3125 C-206.5625 281.6525 -206.5625 148.9925 -206.5625 12.3125 C-175.2125 12.3125 -143.8625 12.3125 -111.5625 12.3125 C-111.2325 31.7825 -110.9025 51.2525 -110.5625 71.3125 C-107.9225 66.3625 -105.2825 61.4125 -102.5625 56.3125 C-100.60672029 53.40327768 -98.71628581 50.67153115 -96.5625 47.9375 C-96.0476001 47.27032959 -95.5327002 46.60315918 -95.00219727 45.91577148 C-93.53824909 44.03459923 -92.05625709 42.17004643 -90.5625 40.3125 C-89.84964844 39.42433594 -89.13679688 38.53617187 -88.40234375 37.62109375 C-83.42130804 31.73999409 -77.66454749 26.99246015 -71.5625 22.3125 C-70.79421875 21.70535156 -70.0259375 21.09820312 -69.234375 20.47265625 C-59.3025199 13.02376492 -47.65996988 7.97993285 -35.8125 4.4375 C-35.17691162 4.24655762 -34.54132324 4.05561523 -33.88647461 3.85888672 C-22.74133285 0.75417871 -11.52468163 -0.05151947 0 0 Z " fill="#000000" transform="translate(5463.5625,250.6875)"/>
<path d="M0 0 C126.06 0 252.12 0 382 0 C382 28.71 382 57.42 382 87 C334.48 87 286.96 87 238 87 C238 228.9 238 370.8 238 517 C207.31 517 176.62 517 145 517 C145 375.1 145 233.2 145 87 C97.15 87 49.3 87 0 87 C0 58.29 0 29.58 0 0 Z " fill="#000000" transform="translate(3707,148)"/>
<path d="M0 0 C32.67 0 65.34 0 99 0 C99 30.03 99 60.06 99 91 C121.77 91 144.54 91 168 91 C168 117.4 168 143.8 168 171 C145.23 171 122.46 171 99 171 C99.0854533 198.2252137 99.17904862 225.45035956 99.28752708 252.67549038 C99.33763489 265.31676971 99.38407808 277.95804261 99.421875 290.59936523 C99.4548306 301.61837297 99.49468164 312.63733058 99.54279006 323.65628296 C99.56801947 329.48994829 99.58981133 335.32358052 99.60334396 341.15728569 C99.6161965 346.65082521 99.63828548 352.14425099 99.66738319 357.63772774 C99.67643399 359.65124404 99.68214336 361.66477863 99.68421364 363.67831421 C99.68755384 366.43410339 99.70307865 369.18957356 99.7215271 371.94529724 C99.718625 373.13162259 99.718625 373.13162259 99.71566427 374.34191412 C99.7956092 382.36728324 100.79071602 389.63309736 106 396 C113.37615444 403.2122399 120.60153906 403.30514321 130.40234375 403.4140625 C131.83664734 403.44052856 131.83664734 403.44052856 133.29992676 403.4675293 C136.84561865 403.53023016 140.39158312 403.57666897 143.9375 403.625 C151.878125 403.74875 159.81875 403.8725 168 404 C168 433.04 168 462.08 168 492 C155.7796875 492.061875 155.7796875 492.061875 143.3125 492.125 C139.52712769 492.15231201 139.52712769 492.15231201 135.6652832 492.18017578 C96.00438495 492.3470597 60.39989308 486.1466257 30.875 457.375 C17.46803973 443.86009613 9.18844618 427.8274769 4.1875 409.5625 C3.99244873 408.86092773 3.79739746 408.15935547 3.59643555 407.43652344 C-0.2134595 392.41205864 -0.2861044 377.00021241 -0.22705078 361.60913086 C-0.22648524 359.51798 -0.226806 357.42682874 -0.22793579 355.3356781 C-0.22850474 349.71286153 -0.21682535 344.09013198 -0.20278788 338.46733546 C-0.19020342 332.57104746 -0.18910398 326.674757 -0.18673706 320.77845764 C-0.18054481 309.63714144 -0.1641648 298.49586495 -0.14403808 287.35456616 C-0.12160852 274.66034404 -0.11066797 261.96611993 -0.10064721 249.27188289 C-0.07979636 223.18123258 -0.0442572 197.09062021 0 171 C-11.88 171 -23.76 171 -36 171 C-36 144.6 -36 118.2 -36 91 C-24.12 91 -12.24 91 0 91 C0 60.97 0 30.94 0 0 Z " fill="#000000" transform="translate(5699,173)"/>
<path d="M0 0 C33.99 0 67.98 0 103 0 C103 170.61 103 341.22 103 517 C69.34 517 35.68 517 1 517 C-0.8050905 515.1949095 -0.12372881 512.7222503 -0.13100848 510.31904116 C-0.12838146 509.49382593 -0.12575445 508.6686107 -0.12304783 507.81838894 C-0.12420167 506.94603427 -0.12535552 506.07367961 -0.12654433 505.17488995 C-0.12921877 502.21337143 -0.12468207 499.25190585 -0.12025452 496.29039001 C-0.12069005 494.16112984 -0.12156462 492.03186972 -0.12284368 489.90260988 C-0.12509216 484.02165037 -0.12106256 478.14070889 -0.11606562 472.25975168 C-0.11176634 465.92910344 -0.11320717 459.5984563 -0.1139679 453.26780701 C-0.11449346 442.28959312 -0.11137797 431.31138601 -0.10573006 420.33317375 C-0.09981959 408.81518463 -0.09596544 397.29719786 -0.09487724 385.77920723 C-0.0948085 385.06392103 -0.09473976 384.34863483 -0.09466894 383.61167329 C-0.09433062 379.97931908 -0.09402923 376.34696486 -0.09374207 372.71461064 C-0.09163984 346.96493088 -0.08489743 321.2152542 -0.07543945 295.46557617 C-0.06625989 270.44506853 -0.05917389 245.42456173 -0.05493164 220.40405273 C-0.05480011 219.63325141 -0.05466859 218.86245009 -0.05453308 218.06829115 C-0.05321459 210.32781641 -0.05193877 202.58734167 -0.05069422 194.84686692 C-0.04815778 179.07764451 -0.04533653 163.30842216 -0.04234314 147.53919983 C-0.04220585 146.81410483 -0.04206856 146.08900984 -0.04192711 145.34194227 C-0.03770275 123.1101989 -0.03227081 100.87845605 -0.02565002 78.64671326 C-0.02527947 77.40079885 -0.02490891 76.15488444 -0.02452713 74.87121505 C-0.01703135 49.91414315 -0.00836402 24.95707163 0 0 Z " fill="#000000" transform="translate(4596,148)"/>
<path d="M0 0 C29.7 0 59.4 0 90 0 C90 170.61 90 341.22 90 517 C60.63 517 31.26 517 1 517 C-0.8050905 515.1949095 -0.12372881 512.7222503 -0.13100848 510.31904116 C-0.12838146 509.49382593 -0.12575445 508.6686107 -0.12304783 507.81838894 C-0.12420167 506.94603427 -0.12535552 506.07367961 -0.12654433 505.17488995 C-0.12921877 502.21337143 -0.12468207 499.25190585 -0.12025452 496.29039001 C-0.12069005 494.16112984 -0.12156462 492.03186972 -0.12284368 489.90260988 C-0.12509216 484.02165037 -0.12106256 478.14070889 -0.11606562 472.25975168 C-0.11176634 465.92910344 -0.11320717 459.5984563 -0.1139679 453.26780701 C-0.11449346 442.28959312 -0.11137797 431.31138601 -0.10573006 420.33317375 C-0.09981959 408.81518463 -0.09596544 397.29719786 -0.09487724 385.77920723 C-0.0948085 385.06392103 -0.09473976 384.34863483 -0.09466894 383.61167329 C-0.09433062 379.97931908 -0.09402923 376.34696486 -0.09374207 372.71461064 C-0.09163984 346.96493088 -0.08489743 321.2152542 -0.07543945 295.46557617 C-0.06625989 270.44506853 -0.05917389 245.42456173 -0.05493164 220.40405273 C-0.05480011 219.63325141 -0.05466859 218.86245009 -0.05453308 218.06829115 C-0.05321459 210.32781641 -0.05193877 202.58734167 -0.05069422 194.84686692 C-0.04815778 179.07764451 -0.04533653 163.30842216 -0.04234314 147.53919983 C-0.04220585 146.81410483 -0.04206856 146.08900984 -0.04192711 145.34194227 C-0.03272141 96.89462681 -0.01664782 48.44731341 0 0 Z " fill="#000000" transform="translate(2996,148)"/>
<path d="M0 0 C10.2927083 7.89440733 17.75410874 17.83693839 22.19140625 30.03515625 C22.50980469 30.88722656 22.82820313 31.73929688 23.15625 32.6171875 C28.28312254 49.13185987 26.43662019 68.20342844 18.55810547 83.42114258 C9.54224169 99.79929591 -4.11504789 110.84514466 -21.9609375 116.16015625 C-38.15090982 119.84193676 -55.10211578 118.05869049 -69.80859375 110.03515625 C-80.82248924 103.00352892 -89.25368875 94.73901052 -95.18359375 83.09765625 C-95.50553711 82.46593506 -95.82748047 81.83421387 -96.15917969 81.18334961 C-100.56916371 71.98188296 -102.3547693 62.88985759 -102.24609375 52.72265625 C-102.23852051 51.72008789 -102.23094727 50.71751953 -102.22314453 49.68457031 C-101.83748346 32.2256654 -94.92093613 17.59335172 -82.80859375 5.03515625 C-75.82955422 -1.10487307 -68.51593517 -5.72342468 -59.80859375 -8.96484375 C-59.01839844 -9.28324219 -58.22820312 -9.60164063 -57.4140625 -9.9296875 C-37.96210545 -16.5770492 -16.36401998 -11.44798616 0 0 Z M-75.80859375 17.03515625 C-86.66560349 30.09536671 -90.16092698 44.39541362 -88.80859375 61.03515625 C-86.35533055 74.58721864 -79.34112487 86.58774528 -68.37890625 94.87109375 C-56.54691785 102.99915534 -43.93626159 105.6559079 -29.80859375 104.03515625 C-16.2553477 101.26219327 -3.71272711 93.26073413 3.94140625 81.72265625 C11.72867185 68.79721768 14.21007163 55.29590411 11.54296875 40.41796875 C7.46567472 25.88607464 -1.3148039 15.14337089 -13.80859375 7.03515625 C-33.85436573 -4.0796539 -60.1982453 0.03947385 -75.80859375 17.03515625 Z " fill="#000000" transform="translate(5955.80859375,127.96484375)"/>
<path d="M0 0 C5.465625 -0.0825 10.93125 -0.165 16.5625 -0.25 C18.27381104 -0.28641602 19.98512207 -0.32283203 21.74829102 -0.36035156 C23.12515005 -0.37204866 24.50202307 -0.38223806 25.87890625 -0.390625 C26.57721558 -0.41108887 27.2755249 -0.43155273 27.99499512 -0.45263672 C34.13994545 -0.45694519 38.32004475 1.46140502 42.77734375 5.68359375 C46.79787937 11.76177723 47.10716768 17.88755483 46 25 C44.32181873 29.45916738 42.41231256 32.24676663 38.1875 34.5 C37.465625 34.665 36.74375 34.83 36 35 C39.22038459 41.26275798 42.98062923 47.01508557 47.05249023 52.74487305 C50 56.90653993 50 56.90653993 50 58 C39.11467267 59.42671766 39.11467267 59.42671766 34 58 C30.20849464 54.55267229 28.25510762 50.54997784 26 46 C25.03223841 44.60212214 24.03786349 43.22164932 23 41.875 C21 39 21 39 21 37 C18.03 37 15.06 37 12 37 C12 43.93 12 50.86 12 58 C8.04 58 4.08 58 0 58 C0 38.86 0 19.72 0 0 Z M13 13 C13 16.63 13 20.26 13 24 C15.93847653 24.107834 18.87301151 24.18721916 21.8125 24.25 C23.06256836 24.30027344 23.06256836 24.30027344 24.33789062 24.3515625 C29.13424215 24.55175249 29.13424215 24.55175249 33.08984375 22.18359375 C34.3547914 19.14880519 33.83346492 17.12549344 33 14 C32.01592689 12.79504091 32.01592689 12.79504091 30.14233398 12.88647461 C29.35157471 12.89171143 28.56081543 12.89694824 27.74609375 12.90234375 C26.46508789 12.90717773 26.46508789 12.90717773 25.15820312 12.91210938 C24.26037109 12.92048828 23.36253906 12.92886719 22.4375 12.9375 C21.53580078 12.94201172 20.63410156 12.94652344 19.70507812 12.95117188 C17.47002411 12.96299756 15.23500398 12.98093362 13 13 Z " fill="#000000" transform="translate(5896,151)"/>
</svg>
